<svg width="31" height="31" viewBox="0 0 31 31" fill="none" xmlns="http://www.w3.org/2000/svg">
<rect x="0.36084" width="30.3608" height="30.3608" rx="5" fill="#124342"/>
<path d="M15.5413 11.9265C13.7493 11.9265 12.2869 13.3889 12.2869 15.1809C12.2869 16.9729 13.7493 18.4353 15.5413 18.4353C17.3332 18.4353 18.7956 16.9729 18.7956 15.1809C18.7956 13.3889 17.3332 11.9265 15.5413 11.9265ZM25.302 15.1809C25.302 13.8332 25.3142 12.4978 25.2385 11.1526C25.1628 9.59008 24.8064 8.20336 23.6638 7.06078C22.5188 5.91577 21.1345 5.56176 19.572 5.48608C18.2244 5.41039 16.8889 5.4226 15.5437 5.4226C14.196 5.4226 12.8606 5.41039 11.5154 5.48608C9.95287 5.56176 8.56616 5.91821 7.42358 7.06078C6.27856 8.2058 5.92455 9.59008 5.84887 11.1526C5.77319 12.5002 5.78539 13.8357 5.78539 15.1809C5.78539 16.5261 5.77319 17.864 5.84887 19.2092C5.92455 20.7717 6.281 22.1584 7.42358 23.301C8.5686 24.446 9.95287 24.8 11.5154 24.8757C12.863 24.9514 14.1985 24.9392 15.5437 24.9392C16.8913 24.9392 18.2268 24.9514 19.572 24.8757C21.1345 24.8 22.5212 24.4436 23.6638 23.301C24.8088 22.156 25.1628 20.7717 25.2385 19.2092C25.3166 17.864 25.302 16.5286 25.302 15.1809ZM15.5413 20.1882C12.7703 20.1882 10.5339 17.9519 10.5339 15.1809C10.5339 12.4099 12.7703 10.1736 15.5413 10.1736C18.3122 10.1736 20.5486 12.4099 20.5486 15.1809C20.5486 17.9519 18.3122 20.1882 15.5413 20.1882ZM20.7537 11.1379C20.1067 11.1379 19.5842 10.6155 19.5842 9.9685C19.5842 9.32153 20.1067 8.79907 20.7537 8.79907C21.4006 8.79907 21.9231 9.32153 21.9231 9.9685C21.9233 10.1221 21.8932 10.2743 21.8345 10.4163C21.7758 10.5582 21.6896 10.6872 21.581 10.7958C21.4724 10.9045 21.3434 10.9906 21.2014 11.0493C21.0594 11.108 20.9073 11.1381 20.7537 11.1379Z" fill="white"/>
</svg>
