<svg width="31" height="31" viewBox="0 0 31 31" fill="none" xmlns="http://www.w3.org/2000/svg">
<rect x="0.0825195" width="30.3608" height="30.3608" rx="5" fill="#124342"/>
<path d="M14.7227 4.80664C20.2457 4.80664 24.7227 9.28364 24.7227 14.8066C24.7227 20.3296 20.2457 24.8066 14.7227 24.8066C12.9554 24.8095 11.2193 24.3418 9.69267 23.4516L4.72667 24.8066L6.07867 19.8386C5.18776 18.3115 4.71972 16.5746 4.72267 14.8066C4.72267 9.28364 9.19967 4.80664 14.7227 4.80664ZM11.3147 10.1066L11.1147 10.1146C10.9852 10.1225 10.8587 10.1565 10.7427 10.2146C10.6342 10.2761 10.5352 10.3529 10.4487 10.4426C10.3287 10.5556 10.2607 10.6536 10.1877 10.7486C9.81779 11.2295 9.61864 11.82 9.62167 12.4266C9.62367 12.9166 9.75167 13.3936 9.95167 13.8396C10.3607 14.7416 11.0337 15.6966 11.9217 16.5816C12.1357 16.7946 12.3457 17.0086 12.5717 17.2076C13.6751 18.1791 14.9899 18.8797 16.4117 19.2536L16.9797 19.3406C17.1647 19.3506 17.3497 19.3366 17.5357 19.3276C17.8269 19.3126 18.1113 19.2337 18.3687 19.0966C18.4996 19.0292 18.6274 18.9558 18.7517 18.8766C18.7517 18.8766 18.7947 18.8486 18.8767 18.7866C19.0117 18.6866 19.0947 18.6156 19.2067 18.4986C19.2897 18.4126 19.3617 18.3116 19.4167 18.1966C19.4947 18.0336 19.5727 17.7226 19.6047 17.4636C19.6287 17.2656 19.6217 17.1576 19.6187 17.0906C19.6147 16.9836 19.5257 16.8726 19.4287 16.8256L18.8467 16.5646C18.8467 16.5646 17.9767 16.1856 17.4447 15.9436C17.389 15.9193 17.3293 15.9054 17.2687 15.9026C17.2003 15.8956 17.1311 15.9033 17.0659 15.9252C17.0007 15.9471 16.941 15.9827 16.8907 16.0296C16.8857 16.0276 16.8187 16.0846 16.0957 16.9606C16.0542 17.0164 15.997 17.0585 15.9315 17.0817C15.8659 17.1048 15.795 17.108 15.7277 17.0906C15.6625 17.0732 15.5987 17.0511 15.5367 17.0246C15.4127 16.9726 15.3697 16.9526 15.2847 16.9166C14.7107 16.6662 14.1794 16.3278 13.7097 15.9136C13.5837 15.8036 13.4667 15.6836 13.3467 15.5676C12.9533 15.1909 12.6104 14.7646 12.3267 14.2996L12.2677 14.2046C12.2253 14.1408 12.191 14.0719 12.1657 13.9996C12.1277 13.8526 12.2267 13.7346 12.2267 13.7346C12.2267 13.7346 12.4697 13.4686 12.5827 13.3246C12.6927 13.1846 12.7857 13.0486 12.8457 12.9516C12.9637 12.7616 13.0007 12.5666 12.9387 12.4156C12.6587 11.7316 12.3687 11.0506 12.0707 10.3746C12.0117 10.2406 11.8367 10.1446 11.6777 10.1256C11.6237 10.1196 11.5697 10.1136 11.5157 10.1096C11.3814 10.103 11.2468 10.1043 11.1127 10.1136L11.3137 10.1056L11.3147 10.1066Z" fill="white"/>
</svg>
